# xmcd
#
# Track frame offsets:
#	150
#	10557
#	21598
#	37333
#	53624
#	68927
#	81722
#	94300
#	113375
#	125421
#
# Disc length: 1885 seconds
#
# Revision: 0
# Processed by: cddbd v1.5.1PL0 Copyright (c) Steve Scherf et al.
# Submitted via: audiograbber 1.83.01
#
DISCID=84075b0a
DTITLE=Montgomery, John Michael - Home To You - Montgomery, John Michael - Home
DTITLE=To You
DYEAR=1900
DGENRE=Country
TTITLE0=Love Made Me Do It
TTITLE1=Hello L-O-V-E
TTITLE2=Home To You
TTITLE3=Your Love Lingers On
TTITLE4=You Are
TTITLE5=Sinkin' In
TTITLE6=Holdin' An Amazing Love
TTITLE7=When Your Arms Were Around
TTITLE8=Love Is Our Business
TTITLE9=Nothing Catches Jesus By Surprise
EXTD=
EXTT0=
EXTT1=
EXTT2=
EXTT3=
EXTT4=
EXTT5=
EXTT6=
EXTT7=
EXTT8=
EXTT9=
PLAYORDER=
